<mxfile host="app.diagrams.net" modified="2024-03-18T08:28:50.351Z" agent="Mozilla/5.0 (Windows NT 10.0; Win64; x64) AppleWebKit/537.36 (KHTML, like Gecko) Chrome/122.0.0.0 Safari/537.36 Edg/122.0.0.0" etag="VdCU6lrNWB501VaJ-knq" version="24.0.7" type="device">
  <diagram id="C5RBs43oDa-KdzZeNtuy" name="Page-1">
    <mxGraphModel dx="2449" dy="893" grid="1" gridSize="20" guides="1" tooltips="1" connect="1" arrows="1" fold="1" page="1" pageScale="1" pageWidth="827" pageHeight="1169" math="0" shadow="0">
      <root>
        <mxCell id="WIyWlLk6GJQsqaUBKTNV-0" />
        <mxCell id="WIyWlLk6GJQsqaUBKTNV-1" parent="WIyWlLk6GJQsqaUBKTNV-0" />
        <mxCell id="lVKazY4YnnkhL7eu_og0-2" value="&lt;font style=&quot;font-size: 20px;&quot;&gt;基础道德与法律&lt;/font&gt;" style="shape=cylinder3;whiteSpace=wrap;html=1;boundedLbl=1;backgroundOutline=1;size=15;fillColor=#dae8fc;strokeColor=#6c8ebf;" parent="WIyWlLk6GJQsqaUBKTNV-1" vertex="1">
          <mxGeometry x="-370" y="505" width="250" height="100" as="geometry" />
        </mxCell>
        <mxCell id="lVKazY4YnnkhL7eu_og0-3" value="" style="ellipse;shape=cloud;whiteSpace=wrap;html=1;fillColor=#eeeeee;strokeColor=#36393d;" parent="WIyWlLk6GJQsqaUBKTNV-1" vertex="1">
          <mxGeometry x="-740" y="320" width="320" height="290" as="geometry" />
        </mxCell>
        <mxCell id="lVKazY4YnnkhL7eu_og0-7" value="&lt;font style=&quot;font-size: 20px;&quot;&gt;典型对话案例&lt;/font&gt;" style="shape=cylinder3;whiteSpace=wrap;html=1;boundedLbl=1;backgroundOutline=1;size=15;fillColor=#dae8fc;strokeColor=#6c8ebf;" parent="WIyWlLk6GJQsqaUBKTNV-1" vertex="1">
          <mxGeometry x="-370" y="425" width="250" height="100" as="geometry" />
        </mxCell>
        <mxCell id="lVKazY4YnnkhL7eu_og0-50" style="edgeStyle=orthogonalEdgeStyle;rounded=0;orthogonalLoop=1;jettySize=auto;html=1;exitX=0.5;exitY=0;exitDx=0;exitDy=0;exitPerimeter=0;entryX=0.5;entryY=0;entryDx=0;entryDy=0;" parent="WIyWlLk6GJQsqaUBKTNV-1" source="lVKazY4YnnkhL7eu_og0-8" target="lVKazY4YnnkhL7eu_og0-25" edge="1">
          <mxGeometry relative="1" as="geometry">
            <Array as="points">
              <mxPoint x="-245" y="220" />
              <mxPoint x="345" y="220" />
            </Array>
          </mxGeometry>
        </mxCell>
        <mxCell id="lVKazY4YnnkhL7eu_og0-51" value="&lt;font style=&quot;font-size: 20px;&quot;&gt;回传&lt;/font&gt;" style="edgeLabel;html=1;align=center;verticalAlign=middle;resizable=0;points=[];" parent="lVKazY4YnnkhL7eu_og0-50" vertex="1" connectable="0">
          <mxGeometry x="-0.0552" relative="1" as="geometry">
            <mxPoint x="25" as="offset" />
          </mxGeometry>
        </mxCell>
        <mxCell id="lVKazY4YnnkhL7eu_og0-8" value="&lt;font style=&quot;font-size: 20px;&quot;&gt;典型安全案例&lt;/font&gt;" style="shape=cylinder3;whiteSpace=wrap;html=1;boundedLbl=1;backgroundOutline=1;size=15;fillColor=#dae8fc;strokeColor=#6c8ebf;" parent="WIyWlLk6GJQsqaUBKTNV-1" vertex="1">
          <mxGeometry x="-370" y="345" width="250" height="100" as="geometry" />
        </mxCell>
        <mxCell id="lVKazY4YnnkhL7eu_og0-11" value="" style="strokeWidth=2;html=1;shape=mxgraph.flowchart.annotation_2;align=left;labelPosition=right;pointerEvents=1;" parent="WIyWlLk6GJQsqaUBKTNV-1" vertex="1">
          <mxGeometry x="-460" y="415" width="90" height="100" as="geometry" />
        </mxCell>
        <mxCell id="lVKazY4YnnkhL7eu_og0-18" value="&lt;font style=&quot;font-size: 20px;&quot;&gt;安全案例&lt;/font&gt;&lt;div style=&quot;font-size: 20px;&quot;&gt;&lt;font style=&quot;font-size: 20px;&quot;&gt;（3w）&lt;/font&gt;&lt;/div&gt;" style="strokeWidth=2;html=1;shape=mxgraph.flowchart.terminator;whiteSpace=wrap;fillColor=#f8cecc;strokeColor=#b85450;" parent="WIyWlLk6GJQsqaUBKTNV-1" vertex="1">
          <mxGeometry x="-700" y="405" width="120" height="70" as="geometry" />
        </mxCell>
        <mxCell id="lVKazY4YnnkhL7eu_og0-19" value="&lt;font style=&quot;font-size: 20px;&quot;&gt;对话案例&lt;/font&gt;&lt;div style=&quot;font-size: 20px;&quot;&gt;&lt;font style=&quot;font-size: 20px;&quot;&gt;（7w）&lt;/font&gt;&lt;/div&gt;" style="strokeWidth=2;html=1;shape=mxgraph.flowchart.terminator;whiteSpace=wrap;fillColor=#ffe6cc;strokeColor=#d79b00;" parent="WIyWlLk6GJQsqaUBKTNV-1" vertex="1">
          <mxGeometry x="-580" y="425" width="120" height="70" as="geometry" />
        </mxCell>
        <mxCell id="lVKazY4YnnkhL7eu_og0-20" value="&lt;font style=&quot;font-size: 20px;&quot;&gt;法律和道德&lt;/font&gt;&lt;div style=&quot;font-size: 20px;&quot;&gt;&lt;font style=&quot;font-size: 20px;&quot;&gt;（95w）&lt;/font&gt;&lt;/div&gt;" style="strokeWidth=2;html=1;shape=mxgraph.flowchart.terminator;whiteSpace=wrap;fillColor=#0050ef;strokeColor=#001DBC;fontColor=#ffffff;" parent="WIyWlLk6GJQsqaUBKTNV-1" vertex="1">
          <mxGeometry x="-650" y="495" width="120" height="70" as="geometry" />
        </mxCell>
        <mxCell id="lVKazY4YnnkhL7eu_og0-21" value="&lt;font style=&quot;font-size: 20px;&quot;&gt;嵌入&lt;/font&gt;&lt;div style=&quot;font-size: 20px;&quot;&gt;&lt;font style=&quot;font-size: 20px;&quot;&gt;表征&lt;/font&gt;&lt;/div&gt;" style="text;html=1;align=center;verticalAlign=middle;whiteSpace=wrap;rounded=0;" parent="WIyWlLk6GJQsqaUBKTNV-1" vertex="1">
          <mxGeometry x="-420" y="425" width="60" height="80" as="geometry" />
        </mxCell>
        <mxCell id="lVKazY4YnnkhL7eu_og0-46" style="edgeStyle=orthogonalEdgeStyle;rounded=0;orthogonalLoop=1;jettySize=auto;html=1;entryX=0.5;entryY=0;entryDx=0;entryDy=0;exitX=0.5;exitY=0.88;exitDx=0;exitDy=0;exitPerimeter=0;" parent="WIyWlLk6GJQsqaUBKTNV-1" source="lVKazY4YnnkhL7eu_og0-22" target="lVKazY4YnnkhL7eu_og0-33" edge="1">
          <mxGeometry relative="1" as="geometry" />
        </mxCell>
        <mxCell id="lVKazY4YnnkhL7eu_og0-52" style="edgeStyle=orthogonalEdgeStyle;rounded=0;orthogonalLoop=1;jettySize=auto;html=1;exitX=1;exitY=0.5;exitDx=0;exitDy=0;exitPerimeter=0;entryX=0;entryY=0.5;entryDx=0;entryDy=0;" parent="WIyWlLk6GJQsqaUBKTNV-1" source="lVKazY4YnnkhL7eu_og0-22" target="lVKazY4YnnkhL7eu_og0-25" edge="1">
          <mxGeometry relative="1" as="geometry">
            <Array as="points">
              <mxPoint x="220" y="308" />
              <mxPoint x="220" y="475" />
            </Array>
          </mxGeometry>
        </mxCell>
        <mxCell id="lVKazY4YnnkhL7eu_og0-22" value="&lt;font style=&quot;font-size: 20px;&quot;&gt;问题&lt;/font&gt;" style="strokeWidth=2;html=1;shape=mxgraph.flowchart.multi-document;whiteSpace=wrap;" parent="WIyWlLk6GJQsqaUBKTNV-1" vertex="1">
          <mxGeometry y="250" width="160" height="115" as="geometry" />
        </mxCell>
        <mxCell id="lVKazY4YnnkhL7eu_og0-30" style="edgeStyle=orthogonalEdgeStyle;rounded=0;orthogonalLoop=1;jettySize=auto;html=1;exitX=0;exitY=0;exitDx=0;exitDy=37.5;exitPerimeter=0;" parent="WIyWlLk6GJQsqaUBKTNV-1" source="lVKazY4YnnkhL7eu_og0-27" target="lVKazY4YnnkhL7eu_og0-7" edge="1">
          <mxGeometry relative="1" as="geometry">
            <Array as="points">
              <mxPoint x="-70" y="603" />
              <mxPoint x="-70" y="475" />
            </Array>
          </mxGeometry>
        </mxCell>
        <mxCell id="lVKazY4YnnkhL7eu_og0-54" style="edgeStyle=orthogonalEdgeStyle;rounded=0;orthogonalLoop=1;jettySize=auto;html=1;exitX=0;exitY=0;exitDx=150;exitDy=37.5;exitPerimeter=0;entryX=0;entryY=0.5;entryDx=0;entryDy=0;" parent="WIyWlLk6GJQsqaUBKTNV-1" source="lVKazY4YnnkhL7eu_og0-27" target="lVKazY4YnnkhL7eu_og0-25" edge="1">
          <mxGeometry relative="1" as="geometry">
            <Array as="points">
              <mxPoint x="220" y="603" />
              <mxPoint x="220" y="475" />
            </Array>
          </mxGeometry>
        </mxCell>
        <mxCell id="lVKazY4YnnkhL7eu_og0-27" value="&lt;font style=&quot;font-size: 20px;&quot;&gt;回答&lt;/font&gt;" style="shape=callout;whiteSpace=wrap;html=1;perimeter=calloutPerimeter;" parent="WIyWlLk6GJQsqaUBKTNV-1" vertex="1">
          <mxGeometry x="5" y="565" width="150" height="105" as="geometry" />
        </mxCell>
        <mxCell id="lVKazY4YnnkhL7eu_og0-28" value="" style="group" parent="WIyWlLk6GJQsqaUBKTNV-1" vertex="1" connectable="0">
          <mxGeometry x="270" y="402.5" width="390" height="237.5" as="geometry" />
        </mxCell>
        <mxCell id="lVKazY4YnnkhL7eu_og0-25" value="" style="verticalLabelPosition=bottom;verticalAlign=top;html=1;shape=hexagon;perimeter=hexagonPerimeter2;arcSize=6;size=0.27;fillColor=#d5e8d4;strokeColor=#82b366;" parent="lVKazY4YnnkhL7eu_og0-28" vertex="1">
          <mxGeometry width="150" height="145" as="geometry" />
        </mxCell>
        <mxCell id="lVKazY4YnnkhL7eu_og0-26" value="&lt;font style=&quot;font-size: 20px;&quot;&gt;审核模型&lt;/font&gt;" style="text;html=1;align=center;verticalAlign=middle;whiteSpace=wrap;rounded=0;" parent="lVKazY4YnnkhL7eu_og0-28" vertex="1">
          <mxGeometry x="45" y="57.5" width="60" height="30" as="geometry" />
        </mxCell>
        <mxCell id="lVKazY4YnnkhL7eu_og0-75" value="" style="rounded=1;whiteSpace=wrap;html=1;dashed=1;shadow=0;glass=1;fillColor=none;strokeColor=#000099;fontColor=#ffffff;" parent="lVKazY4YnnkhL7eu_og0-28" vertex="1">
          <mxGeometry x="-10" y="-282.5" width="400" height="560" as="geometry" />
        </mxCell>
        <mxCell id="lVKazY4YnnkhL7eu_og0-33" value="&lt;font style=&quot;font-size: 20px;&quot;&gt;待检测模型&lt;/font&gt;" style="shape=hexagon;perimeter=hexagonPerimeter2;whiteSpace=wrap;html=1;fixedSize=1;fillColor=#f8cecc;strokeColor=#b85450;" parent="WIyWlLk6GJQsqaUBKTNV-1" vertex="1">
          <mxGeometry x="10" y="415" width="140" height="100" as="geometry" />
        </mxCell>
        <mxCell id="lVKazY4YnnkhL7eu_og0-45" style="edgeStyle=orthogonalEdgeStyle;rounded=0;orthogonalLoop=1;jettySize=auto;html=1;entryX=0.5;entryY=0;entryDx=0;entryDy=0;entryPerimeter=0;" parent="WIyWlLk6GJQsqaUBKTNV-1" source="lVKazY4YnnkhL7eu_og0-33" target="lVKazY4YnnkhL7eu_og0-27" edge="1">
          <mxGeometry relative="1" as="geometry" />
        </mxCell>
        <mxCell id="lVKazY4YnnkhL7eu_og0-47" style="edgeStyle=orthogonalEdgeStyle;rounded=0;orthogonalLoop=1;jettySize=auto;html=1;exitX=0;exitY=0.5;exitDx=0;exitDy=0;exitPerimeter=0;entryX=1;entryY=0.5;entryDx=0;entryDy=0;entryPerimeter=0;" parent="WIyWlLk6GJQsqaUBKTNV-1" source="lVKazY4YnnkhL7eu_og0-22" target="lVKazY4YnnkhL7eu_og0-7" edge="1">
          <mxGeometry relative="1" as="geometry">
            <Array as="points">
              <mxPoint x="-70" y="308" />
              <mxPoint x="-70" y="475" />
            </Array>
          </mxGeometry>
        </mxCell>
        <mxCell id="lVKazY4YnnkhL7eu_og0-81" value="&lt;font style=&quot;font-size: 20px;&quot;&gt;检索&lt;/font&gt;&lt;div style=&quot;font-size: 20px;&quot;&gt;&lt;font style=&quot;font-size: 20px;&quot;&gt;召回&lt;/font&gt;&lt;/div&gt;" style="edgeLabel;html=1;align=center;verticalAlign=middle;resizable=0;points=[];" parent="lVKazY4YnnkhL7eu_og0-47" vertex="1" connectable="0">
          <mxGeometry x="0.6666" y="3" relative="1" as="geometry">
            <mxPoint as="offset" />
          </mxGeometry>
        </mxCell>
        <mxCell id="lVKazY4YnnkhL7eu_og0-63" value="" style="edgeStyle=orthogonalEdgeStyle;rounded=0;orthogonalLoop=1;jettySize=auto;html=1;" parent="WIyWlLk6GJQsqaUBKTNV-1" source="lVKazY4YnnkhL7eu_og0-55" target="lVKazY4YnnkhL7eu_og0-56" edge="1">
          <mxGeometry relative="1" as="geometry" />
        </mxCell>
        <mxCell id="lVKazY4YnnkhL7eu_og0-64" value="" style="edgeStyle=orthogonalEdgeStyle;rounded=0;orthogonalLoop=1;jettySize=auto;html=1;" parent="WIyWlLk6GJQsqaUBKTNV-1" source="lVKazY4YnnkhL7eu_og0-55" target="lVKazY4YnnkhL7eu_og0-59" edge="1">
          <mxGeometry relative="1" as="geometry" />
        </mxCell>
        <mxCell id="lVKazY4YnnkhL7eu_og0-55" value="&lt;font style=&quot;font-size: 20px;&quot;&gt;判别结果&lt;/font&gt;" style="rhombus;whiteSpace=wrap;html=1;fillColor=#e1d5e7;strokeColor=#9673a6;" parent="WIyWlLk6GJQsqaUBKTNV-1" vertex="1">
          <mxGeometry x="480" y="397.5" width="170" height="155" as="geometry" />
        </mxCell>
        <mxCell id="lVKazY4YnnkhL7eu_og0-56" value="&lt;font style=&quot;font-size: 20px;&quot;&gt;记录&lt;/font&gt;" style="rounded=1;whiteSpace=wrap;html=1;fillColor=#f5f5f5;fontColor=#333333;strokeColor=#666666;" parent="WIyWlLk6GJQsqaUBKTNV-1" vertex="1">
          <mxGeometry x="505" y="270" width="120" height="60" as="geometry" />
        </mxCell>
        <mxCell id="lVKazY4YnnkhL7eu_og0-59" value="&lt;font style=&quot;font-size: 20px;&quot;&gt;计算正确率&lt;/font&gt;" style="rounded=1;whiteSpace=wrap;html=1;fillColor=#f5f5f5;fontColor=#333333;strokeColor=#666666;" parent="WIyWlLk6GJQsqaUBKTNV-1" vertex="1">
          <mxGeometry x="505" y="585" width="120" height="80" as="geometry" />
        </mxCell>
        <mxCell id="lVKazY4YnnkhL7eu_og0-62" value="" style="edgeStyle=orthogonalEdgeStyle;rounded=0;orthogonalLoop=1;jettySize=auto;html=1;" parent="WIyWlLk6GJQsqaUBKTNV-1" source="lVKazY4YnnkhL7eu_og0-25" target="lVKazY4YnnkhL7eu_og0-55" edge="1">
          <mxGeometry relative="1" as="geometry" />
        </mxCell>
        <mxCell id="lVKazY4YnnkhL7eu_og0-69" value="&lt;font style=&quot;font-size: 20px;&quot;&gt;dify&lt;/font&gt;" style="rounded=1;whiteSpace=wrap;html=1;" parent="WIyWlLk6GJQsqaUBKTNV-1" vertex="1">
          <mxGeometry x="-740" y="700" width="1400" height="60" as="geometry" />
        </mxCell>
        <mxCell id="lVKazY4YnnkhL7eu_og0-73" value="" style="rounded=1;whiteSpace=wrap;html=1;dashed=1;shadow=0;glass=1;fillColor=none;strokeColor=#0000CC;fontColor=#ffffff;" parent="WIyWlLk6GJQsqaUBKTNV-1" vertex="1">
          <mxGeometry x="-740" y="120" width="640" height="560" as="geometry" />
        </mxCell>
        <mxCell id="lVKazY4YnnkhL7eu_og0-74" value="" style="rounded=1;whiteSpace=wrap;html=1;dashed=1;shadow=0;glass=1;fillColor=none;strokeColor=#000099;fontColor=#ffffff;" parent="WIyWlLk6GJQsqaUBKTNV-1" vertex="1">
          <mxGeometry x="-100" y="120" width="360" height="560" as="geometry" />
        </mxCell>
        <mxCell id="lVKazY4YnnkhL7eu_og0-76" value="&lt;font style=&quot;font-size: 20px;&quot;&gt;知识库模块&lt;/font&gt;" style="rounded=1;whiteSpace=wrap;html=1;" parent="WIyWlLk6GJQsqaUBKTNV-1" vertex="1">
          <mxGeometry x="-540" y="140" width="220" height="60" as="geometry" />
        </mxCell>
        <mxCell id="lVKazY4YnnkhL7eu_og0-77" value="&lt;font style=&quot;font-size: 20px;&quot;&gt;问答模块&lt;/font&gt;" style="rounded=1;whiteSpace=wrap;html=1;" parent="WIyWlLk6GJQsqaUBKTNV-1" vertex="1">
          <mxGeometry x="-30" y="140" width="220" height="60" as="geometry" />
        </mxCell>
        <mxCell id="lVKazY4YnnkhL7eu_og0-78" value="&lt;font style=&quot;font-size: 20px;&quot;&gt;审核模块&lt;/font&gt;" style="rounded=1;whiteSpace=wrap;html=1;" parent="WIyWlLk6GJQsqaUBKTNV-1" vertex="1">
          <mxGeometry x="350" y="140" width="220" height="60" as="geometry" />
        </mxCell>
      </root>
    </mxGraphModel>
  </diagram>
</mxfile>
